<svg width="920" height="220" viewBox="0 0 920 220" xmlns="http://www.w3.org/2000/svg" role="img" aria-label="Compatible with OllaBridge (dark)">
  <defs>
    <linearGradient id="g1" x1="0%" y1="0%" x2="100%" y2="100%">
      <stop offset="0%" stop-color="#6366f1"/>
      <stop offset="50%" stop-color="#8b5cf6"/>
      <stop offset="100%" stop-color="#ec4899"/>
    </linearGradient>
    <linearGradient id="g2" x1="0%" y1="0%" x2="100%" y2="0%">
      <stop offset="0%" stop-color="#f59e0b"/>
      <stop offset="100%" stop-color="#ef4444"/>
    </linearGradient>
    <filter id="shadow" x="-20%" y="-20%" width="140%" height="140%">
      <feDropShadow dx="0" dy="3" stdDeviation="4" flood-color="#000" flood-opacity="0.45"/>
    </filter>
  </defs>

  <rect x="16" y="16" width="888" height="188" rx="28" fill="#0b1020" filter="url(#shadow)"/>
  <rect x="16" y="16" width="888" height="188" rx="28" fill="none" stroke="#24304d"/>

  <g transform="translate(56,52)">
    <rect x="0" y="0" width="116" height="116" rx="26" fill="#0f1730"/>
    <g transform="translate(22,22)">
      <rect x="6" y="25" width="10" height="58" rx="3" fill="url(#g1)"/>
      <rect x="78" y="25" width="10" height="58" rx="3" fill="url(#g1)"/>
      <path d="M 11 25 Q 47 2, 83 25" stroke="url(#g1)" stroke-width="10" fill="none" stroke-linecap="round"/>
      <circle cx="28" cy="15" r="4" fill="url(#g2)"/>
      <circle cx="47" cy="8" r="4" fill="url(#g2)"/>
      <circle cx="66" cy="15" r="4" fill="url(#g2)"/>
      <rect x="0" y="85" width="94" height="5" rx="2.5" fill="url(#g1)"/>
    </g>
  </g>

  <g transform="translate(206,75)">
    <text x="0" y="40" font-family="Inter, system-ui, -apple-system, Segoe UI, Roboto, sans-serif"
          font-size="32" font-weight="750" fill="#e5e7eb">
      Compatible with <tspan fill="url(#g1)">OllaBridge</tspan>
    </text>
    <text x="2" y="74" font-family="Inter, system-ui, -apple-system, Segoe UI, Roboto, sans-serif"
          font-size="16" font-weight="450" fill="#a5b4fc" letter-spacing="0.35">
      One endpoint. Any compute. Works with agents via MCP.
    </text>
  </g>

  <g transform="translate(716,84)">
    <rect x="0" y="0" width="152" height="52" rx="26" fill="url(#g1)"/>
    <text x="76" y="33" text-anchor="middle"
          font-family="Inter, system-ui, -apple-system, Segoe UI, Roboto, sans-serif"
          font-size="16" font-weight="650" fill="#ffffff">
      Open App
    </text>
  </g>
</svg>
